<svg width="100" height="100" viewBox="0 0 100 100" xmlns="http://www.w3.org/2000/svg">
  <path d="M30,30 C35,25 45,20 50,20 C55,20 65,25 70,30 C75,35 75,40 70,45 C75,50 75,55 70,60 C65,65 55,70 50,70 C45,70 35,65 30,60 C25,55 25,50 30,45 C25,40 25,35 30,30 Z M40,35 C40,33 43,30 45,30 C47,30 47,33 45,35 C43,37 40,37 40,35 Z M55,35 C55,33 52,30 50,30 C48,30 48,33 50,35 C52,37 55,37 55,35 Z M35,55 C40,60 45,60 50,55 C55,60 60,60 65,55 C60,65 40,65 35,55 Z" fill="#1e40af" stroke="#fff" stroke-width="1"/>
</svg>