<svg width="100" height="100" viewBox="0 0 100 100" xmlns="http://www.w3.org/2000/svg">
  <path d="M20,40 C25,35 35,30 50,30 C65,30 75,35 80,40 C85,45 85,55 80,60 C75,65 65,70 50,70 C35,70 25,65 20,60 C15,55 15,45 20,40 Z M30,40 C25,45 25,55 30,60 C35,55 35,45 30,40 Z M70,40 C75,45 75,55 70,60 C65,55 65,45 70,40 Z M40,50 C40,45 45,45 45,50 C45,55 40,55 40,50 Z M55,50 C55,45 60,45 60,50 C60,55 55,55 55,50 Z M40,60 C45,65 55,65 60,60 C55,65 45,65 40,60 Z" fill="#db2777" stroke="#fff" stroke-width="1"/>
</svg>